<?xml version="1.0" standalone="no"?>
<!DOCTYPE svg PUBLIC "-//W3C//DTD SVG 20010904//EN"
 "http://www.w3.org/TR/2001/REC-SVG-20010904/DTD/svg10.dtd">
<svg version="1.0" xmlns="http://www.w3.org/2000/svg"
 width="900.000000pt" height="780.000000pt" viewBox="0 0 900.000000 780.000000"
 preserveAspectRatio="xMidYMid meet">

<g transform="translate(0.000000,780.000000) scale(0.100000,-0.100000)"
fill="#000000" stroke="none">
<path d="M5453 4984 c-99 -17 -215 -50 -282 -80 -182 -83 -343 -218 -454 -379
-57 -83 -98 -163 -88 -170 5 -3 27 28 49 68 142 258 383 445 672 519 100 26
134 30 255 31 236 1 429 -57 618 -185 197 -134 368 -376 428 -608 23 -86 39
-121 39 -83 0 39 -49 191 -89 275 -127 266 -361 474 -639 568 -152 50 -360 68
-509 44z"/>
<path d="M3212 4844 c-13 -9 -28 -27 -33 -41 -12 -33 6 -99 31 -113 30 -16 75
-12 95 10 24 26 13 37 -17 16 -30 -21 -44 -20 -68 4 -30 30 -24 40 24 40 24 0
51 3 60 6 22 9 20 50 -4 74 -24 24 -57 26 -88 4z m73 -26 c14 -21 14 -23 -2
-30 -27 -10 -83 -9 -83 2 0 15 38 50 54 50 8 0 22 -10 31 -22z"/>
<path d="M3383 4850 c-17 -7 -23 -18 -23 -40 0 -27 6 -33 46 -50 46 -20 52
-35 21 -54 -13 -8 -25 -7 -47 6 -35 20 -50 6 -18 -16 27 -19 79 -21 96 -4 7 7
12 25 12 40 0 25 -7 32 -46 48 -56 24 -54 45 5 44 46 -1 54 12 15 26 -30 12
-32 12 -61 0z"/>
<path d="M3000 4805 c-19 -20 -22 -32 -17 -65 6 -46 21 -68 55 -81 34 -13 90
13 98 46 8 34 -2 84 -23 107 -24 27 -84 24 -113 -7z m92 -12 c21 -19 25 -82 6
-101 -19 -19 -66 -15 -78 7 -14 27 -13 84 2 99 17 17 48 15 70 -5z"/>
<path d="M2890 4801 c0 -15 -6 -21 -23 -21 -52 0 -74 -63 -36 -99 12 -11 18
-25 14 -31 -4 -6 -1 -17 5 -25 10 -12 10 -18 1 -29 -10 -11 -10 -20 -1 -37 10
-18 18 -21 56 -16 58 6 86 31 82 71 -3 28 -6 31 -38 30 -19 0 -46 -2 -59 -5
-30 -5 -40 17 -12 26 12 3 28 13 36 21 17 18 20 70 5 79 -6 4 -10 16 -8 27 2
12 -3 23 -9 25 -8 3 -13 -4 -13 -16z m15 -61 c14 -43 -44 -67 -68 -28 -8 12
-7 21 2 32 19 23 58 20 66 -4z m62 -126 c8 -23 -19 -46 -58 -47 -28 -2 -34 2
-34 18 0 14 11 24 35 32 46 16 50 16 57 -3z"/>
<path d="M3610 4796 c0 -11 8 -13 33 -9 23 3 37 0 47 -11 19 -24 3 -34 -55
-38 -44 -3 -51 -6 -60 -32 -8 -24 -6 -31 15 -48 16 -13 33 -18 51 -14 17 3 32
0 39 -9 19 -23 26 -18 27 23 0 20 4 57 8 81 7 37 5 46 -10 58 -26 18 -95 17
-95 -1z m73 -96 c-3 -10 -11 -24 -19 -31 -20 -16 -64 -3 -64 20 0 26 9 31 51
31 32 0 36 -3 32 -20z"/>
<path d="M3765 4688 c-31 -78 -31 -81 -17 -86 4 -1 20 25 35 59 26 61 27 62
62 56 19 -3 37 -2 40 3 9 14 -33 32 -57 24 -14 -4 -18 -2 -14 5 4 6 1 11 -7
11 -8 0 -26 -31 -42 -72z"/>
<path d="M2603 4680 c3 -11 1 -23 -4 -26 -15 -9 -10 -22 8 -20 10 0 28 -19 47
-51 16 -29 37 -54 45 -56 23 -5 61 14 61 30 0 15 -16 17 -25 3 -13 -22 -35 -8
-64 42 l-30 53 25 13 c13 7 22 17 19 23 -4 5 -14 5 -27 -2 -14 -8 -23 -8 -31
0 -17 17 -30 13 -24 -9z"/>
<path d="M3886 4657 c-43 -56 -27 -118 37 -140 42 -15 107 46 107 101 0 35
-43 72 -84 72 -28 0 -40 -7 -60 -33z m95 3 c42 -23 5 -120 -46 -120 -30 0 -58
39 -49 66 10 27 45 64 61 64 8 0 23 -5 34 -10z"/>
<path d="M2481 4574 c-21 -27 -28 -54 -13 -54 4 0 15 14 24 30 20 34 58 42 58
11 0 -10 -7 -25 -16 -32 -28 -23 -36 -59 -19 -85 8 -13 23 -24 33 -24 26 0 62
28 62 49 0 12 7 17 21 17 12 -1 24 5 27 13 3 9 0 12 -10 8 -10 -3 -28 11 -52
44 -44 59 -81 66 -115 23z m110 -101 c-8 -17 -18 -23 -33 -21 -31 4 -34 35 -7
64 l22 24 15 -21 c11 -16 12 -26 3 -46z"/>
<path d="M4060 4552 c-19 -26 -38 -54 -42 -64 -10 -24 28 -68 57 -68 18 0 23
-4 19 -15 -4 -8 -2 -15 4 -15 10 0 112 122 112 134 0 19 -29 0 -55 -35 -29
-40 -62 -56 -90 -45 -31 12 -27 36 14 90 44 57 48 66 29 66 -7 -1 -29 -22 -48
-48z"/>
<path d="M2355 4465 c-14 -13 -25 -30 -25 -36 0 -7 -13 0 -29 15 -17 16 -34
25 -41 21 -8 -5 16 -36 71 -91 46 -46 87 -84 91 -84 19 0 5 29 -32 65 -40 39
-50 71 -28 93 21 21 41 13 90 -35 33 -32 51 -44 58 -37 13 13 -90 114 -115
114 -9 0 -27 -11 -40 -25z"/>
<path d="M4196 4411 c-66 -67 -61 -91 7 -31 46 41 74 49 95 28 22 -22 13 -46
-33 -89 -25 -23 -45 -46 -45 -51 0 -20 30 -4 74 41 55 56 58 84 11 116 -17 11
-31 24 -32 30 -3 22 -22 12 -77 -44z"/>
<path d="M2250 4354 c0 -3 21 -30 46 -60 l46 -53 -70 23 c-99 34 -104 25 -36
-58 25 -31 43 -56 41 -56 -2 0 -32 12 -67 26 -37 15 -66 22 -72 16 -7 -7 38
-29 143 -67 34 -12 27 24 -12 74 -23 28 -36 51 -30 51 6 0 34 -9 62 -20 86
-32 92 -10 18 73 -45 51 -69 68 -69 51z"/>
<path d="M4315 4269 c-44 -39 -47 -77 -7 -111 15 -12 27 -29 27 -35 0 -7 3
-13 8 -13 5 0 174 108 196 126 1 1 0 7 -4 13 -4 7 -19 2 -43 -14 l-37 -25 -7
32 c-13 65 -75 77 -133 27z m113 -39 c5 -30 -34 -70 -70 -70 -18 0 -33 8 -43
24 -21 31 -8 57 37 79 28 13 36 14 53 3 11 -7 21 -23 23 -36z"/>
<path d="M6477 3963 c-12 -11 -8 -20 19 -52 20 -24 22 -31 10 -31 -23 0 -56
-40 -56 -68 0 -35 60 -92 98 -92 35 0 62 22 62 50 0 12 5 17 13 14 8 -3 19 1
25 8 8 10 -8 33 -68 96 -76 80 -89 89 -103 75z m87 -124 c46 -36 23 -94 -29
-71 -36 16 -47 44 -29 70 19 27 25 27 58 1z"/>
<path d="M4637 3876 c-35 -32 -42 -67 -23 -104 17 -32 34 -42 73 -42 18 0 24
5 21 18 -2 9 -11 16 -19 14 -9 -1 -24 7 -34 18 -18 20 -18 21 2 48 11 15 28
28 37 30 22 5 46 -16 46 -39 0 -12 7 -19 20 -19 29 0 26 41 -6 74 -35 34 -82
35 -117 2z"/>
<path d="M2230 3869 c0 -24 84 -169 145 -251 241 -320 639 -494 1045 -457 359
33 669 216 873 518 58 86 110 188 98 195 -4 3 -18 -16 -30 -42 -90 -186 -270
-383 -441 -485 -215 -129 -391 -173 -655 -164 -164 6 -231 18 -358 65 -273
103 -519 327 -636 580 -23 48 -41 67 -41 41z"/>
<path d="M4766 3749 c-43 -51 -31 -110 29 -135 95 -39 167 91 86 153 -9 7 -32
13 -53 13 -28 0 -42 -7 -62 -31z m103 -23 c14 -17 -8 -70 -34 -79 -40 -16 -67
29 -41 68 18 28 57 33 75 11z"/>
<path d="M6362 3768 c-12 -6 -25 -22 -28 -35 -5 -17 -10 -21 -19 -13 -9 7 -16
6 -25 -4 -9 -12 -3 -27 35 -81 49 -68 54 -72 73 -53 8 8 4 21 -19 53 -35 48
-36 88 -3 93 15 2 29 -10 54 -47 29 -41 37 -48 52 -40 18 10 18 11 1 40 -23
38 -78 99 -89 98 -5 0 -19 -5 -32 -11z"/>
<path d="M4934 3619 c-34 -69 -35 -73 -18 -86 17 -12 21 -9 42 34 27 54 47 74
68 66 19 -7 18 -27 -6 -73 -24 -47 -25 -66 -5 -73 10 -4 23 10 42 46 27 50 55
69 74 50 6 -6 -1 -32 -16 -67 -25 -57 -25 -76 -1 -76 15 0 66 103 66 135 0 29
-31 49 -66 42 -17 -3 -25 1 -30 15 -7 22 -47 40 -69 31 -10 -3 -15 -1 -13 8 2
7 -5 14 -14 17 -13 2 -27 -16 -54 -69z"/>
<path d="M6213 3674 c-8 -4 -3 -22 14 -61 19 -41 23 -60 16 -72 -21 -34 -42
-24 -70 33 -27 55 -48 70 -59 41 -7 -17 44 -114 67 -128 23 -14 70 0 76 24 4
13 9 16 17 10 7 -6 17 -6 26 -1 12 8 9 22 -23 85 -36 74 -40 78 -64 69z"/>
<path d="M5980 3573 c-14 -9 -28 -22 -32 -27 -21 -30 4 -117 37 -130 36 -13
76 -6 102 20 22 22 25 32 20 67 -10 73 -73 107 -127 70z m78 -56 c16 -33 8
-63 -17 -70 -27 -7 -49 10 -56 43 -13 60 47 82 73 27z"/>
<path d="M5230 3542 c-61 -61 -28 -152 55 -152 38 0 62 22 42 38 -7 6 -18 7
-26 2 -24 -14 -60 8 -61 37 0 8 14 8 52 -2 28 -8 55 -12 60 -9 4 3 8 20 8 38
0 39 -23 63 -68 72 -26 5 -36 1 -62 -24z m87 -27 c8 -22 1 -26 -35 -19 -20 4
-29 11 -25 20 7 19 52 18 60 -1z"/>
<path d="M5865 3540 c-4 -6 -14 -8 -23 -6 -36 12 -41 -5 -25 -89 8 -44 16 -81
17 -83 2 -1 10 0 19 4 13 5 16 19 14 67 -2 56 0 63 21 72 27 12 30 45 3 45
-11 0 -23 -5 -26 -10z"/>
<path d="M5400 3516 c-21 -26 -8 -60 33 -79 39 -20 50 -47 18 -47 -11 0 -27 7
-36 16 -15 15 -18 15 -32 1 -14 -14 -13 -17 10 -32 31 -20 81 -23 102 -5 8 7
15 25 15 41 0 23 -7 32 -41 50 -30 15 -38 24 -30 32 7 7 17 7 35 -1 19 -8 27
-8 36 3 9 11 7 16 -9 24 -28 16 -86 13 -101 -3z"/>
<path d="M5675 3523 c-35 -9 -54 -28 -45 -43 7 -12 13 -12 34 -1 31 17 64 8
47 -13 -6 -7 -25 -16 -41 -19 -65 -14 -62 -97 4 -97 19 0 38 5 41 10 4 7 13 6
26 -1 11 -6 27 -8 35 -5 19 7 18 32 -1 40 -11 4 -15 20 -15 55 0 40 -4 53 -22
65 -23 16 -29 17 -63 9z m43 -115 c-4 -31 -48 -39 -48 -10 0 20 12 30 38 31 8
1 12 -8 10 -21z"/>
</g>
</svg>
